<svg xmlns="http://www.w3.org/2000/svg" width="600" height="600" viewBox="0 0 600 600">
  <rect width="600" height="600" fill="#ffffff"/>
  <g transform="translate(300,300)">

    <circle cx="0" cy="0" r="30" fill="none" stroke="#1aaeaa" stroke-width="1" opacity="0.2"/>
    <circle cx="0" cy="0" r="75" fill="none" stroke="#1a1a2e" stroke-width="0.6" opacity="0.06"/>
    <circle cx="0" cy="0" r="145" fill="none" stroke="#1a1a2e" stroke-width="0.5" opacity="0.05"/>
    <circle cx="0" cy="0" r="225" fill="none" stroke="#1a1a2e" stroke-width="0.4" opacity="0.04"/>

    <line x1="0" y1="0" x2="0" y2="-228" stroke="#1aaeaa" stroke-width="0.9" opacity="0.16"/>
    <line x1="0" y1="0" x2="200" y2="-106" stroke="#1aaeaa" stroke-width="0.9" opacity="0.14"/>
    <line x1="0" y1="0" x2="215" y2="85" stroke="#1aaeaa" stroke-width="0.9" opacity="0.13"/>
    <line x1="0" y1="0" x2="92" y2="214" stroke="#1aaeaa" stroke-width="0.9" opacity="0.12"/>
    <line x1="0" y1="0" x2="-118" y2="196" stroke="#1aaeaa" stroke-width="0.9" opacity="0.12"/>
    <line x1="0" y1="0" x2="-220" y2="58" stroke="#1aaeaa" stroke-width="0.9" opacity="0.13"/>
    <line x1="0" y1="0" x2="-210" y2="-92" stroke="#1aaeaa" stroke-width="0.9" opacity="0.14"/>
    <line x1="0" y1="0" x2="-74" y2="-214" stroke="#1aaeaa" stroke-width="0.9" opacity="0.15"/>

    <line x1="0" y1="0" x2="70" y2="-138" stroke="#1a1a2e" stroke-width="0.6" opacity="0.07" stroke-dasharray="4 6"/>
    <line x1="0" y1="0" x2="146" y2="30" stroke="#1a1a2e" stroke-width="0.6" opacity="0.06" stroke-dasharray="4 6"/>
    <line x1="0" y1="0" x2="-44" y2="146" stroke="#1a1a2e" stroke-width="0.6" opacity="0.06" stroke-dasharray="4 6"/>
    <line x1="0" y1="0" x2="-160" y2="-30" stroke="#1a1a2e" stroke-width="0.6" opacity="0.06" stroke-dasharray="4 6"/>
    <line x1="0" y1="0" x2="30" y2="160" stroke="#1a1a2e" stroke-width="0.6" opacity="0.05" stroke-dasharray="4 6"/>
    <line x1="0" y1="0" x2="-128" y2="128" stroke="#1a1a2e" stroke-width="0.6" opacity="0.05" stroke-dasharray="4 6"/>
    <line x1="0" y1="0" x2="128" y2="-128" stroke="#1a1a2e" stroke-width="0.6" opacity="0.05" stroke-dasharray="4 6"/>

    <circle cx="0" cy="-228" r="7" fill="none" stroke="#1aaeaa" stroke-width="1.4" opacity="0.38"/>
    <circle cx="200" cy="-106" r="6" fill="#1aaeaa" opacity="0.32"/>
    <circle cx="215" cy="85" r="7" fill="none" stroke="#1aaeaa" stroke-width="1.2" opacity="0.3"/>
    <circle cx="92" cy="214" r="5.5" fill="#1aaeaa" opacity="0.25"/>
    <circle cx="-118" cy="196" r="6.5" fill="none" stroke="#1aaeaa" stroke-width="1.2" opacity="0.3"/>
    <circle cx="-220" cy="58" r="6" fill="#1aaeaa" opacity="0.28"/>
    <circle cx="-210" cy="-92" r="7" fill="none" stroke="#1aaeaa" stroke-width="1.2" opacity="0.32"/>
    <circle cx="-74" cy="-214" r="6" fill="#1aaeaa" opacity="0.32"/>

    <circle cx="70" cy="-138" r="4" fill="#1a1a2e" opacity="0.14"/>
    <circle cx="146" cy="30" r="3.5" fill="#1a1a2e" opacity="0.12"/>
    <circle cx="-44" cy="146" r="4" fill="#1a1a2e" opacity="0.11"/>
    <circle cx="-160" cy="-30" r="3.5" fill="#1a1a2e" opacity="0.12"/>
    <circle cx="30" cy="160" r="3" fill="#1a1a2e" opacity="0.1"/>
    <circle cx="-128" cy="128" r="3.5" fill="#1a1a2e" opacity="0.1"/>
    <circle cx="128" cy="-128" r="3.5" fill="#1a1a2e" opacity="0.1"/>

    <circle cx="0" cy="0" r="7" fill="#1aaeaa" opacity="0.6"/>
    <circle cx="0" cy="0" r="3.5" fill="#1a1a2e" opacity="0.75"/>
  </g>
</svg>
